# xmcd
#
# Track frame offsets:
# 150
# 10305
# 19865
# 33895
# 49750
# 62025
# 74330
# 91045
# 100865
# 111325
# 120765
# 137395
# 148880
# 162455
# 174580
#
# Disc length: 2444 seconds
#
#
# Revision: 0
# Processed by: cddbd v1.4PL0 Copyright (c) Steve Scherf et al.
# Submitted via: FreeRIP 2.35 
#
DISCID=c3098a0f
DTITLE=Tolentino - Realidade Sertaneja
DYEAR=1992
DGENRE=Terror
TTITLE0=Passos e Decisão
TTITLE1=Telefone a Cobrar
TTITLE2=Dilúvio de Lágrimas
TTITLE3=Cem Anos de Alvinópolis
TTITLE4=Trânsito Tão Violento
TTITLE5=Amar Não É Pecado
TTITLE6=Primeiro Encontro
TTITLE7=Ciúme É Doença
TTITLE8=Amor, Veneno Tão Doce
TTITLE9=Acreditei no Amor
TTITLE10=À Procura de Alguém
TTITLE11=O Sol e o Ano 2000
TTITLE12=Globo Terrestre
TTITLE13=Esse Amor Que Me Afeta
TTITLE14=Cegueira do Vício
EXTD=O pior dos piores.
EXTT0=
EXTT1=
EXTT2=
EXTT3=
EXTT4=
EXTT5=
EXTT6=
EXTT7=
EXTT8=
EXTT9=
EXTT10=
EXTT11=
EXTT12=
EXTT13=
EXTT14=
PLAYORDER=
